<?xml version="1.0" encoding="UTF-8"?>
<svg width="512" height="512" viewBox="0 0 512 512" fill="none" xmlns="http://www.w3.org/2000/svg">
  <rect width="512" height="512" fill="#282828"/>
  <path d="M256 128C238.327 128 224 142.327 224 160V320C224 337.673 238.327 352 256 352H384C401.673 352 416 337.673 416 320V160C416 142.327 401.673 128 384 128H256ZM96 192C78.3269 192 64 206.327 64 224V288C64 305.673 78.3269 320 96 320H160C177.673 320 192 305.673 192 288V224C192 206.327 177.673 192 160 192H96Z" fill="#1DB954"/>
</svg> 